Coordinates
version=1
nRows=14
nColumns=24
inDegrees=yes

Units are S.I. units (second, meters, Newtons, ...)
Angles are in degrees.

endheader
time	pelvis_tilt	pelvis_list	pelvis_rotation	pelvis_tx	pelvis_ty	pelvis_tz	hip_flexion_r	hip_adduction_r	hip_rotation_r	knee_angle_r	ankle_angle_r	subtalar_angle_r	mtp_angle_r	hip_flexion_l	hip_adduction_l	hip_rotation_l	knee_angle_l	ankle_angle_l	subtalar_angle_l	mtp_angle_l	lumbar_extension	lumbar_bending	lumbar_rotation
      0.70016667	      2.98482323	      2.42097395	      0.86789488	     -0.48287465	      1.02597622	      0.29798374	      5.71896310	      0.44413730	     -1.04617714	    -13.56402051	      5.78348526	    -10.36221459	      8.39084551	     14.34367230	      1.17075800	     -4.59707100	    -64.84122166	      1.34918628	    -17.19848741	     -2.21579241	    -10.56423837	     -2.44672909	      2.90703610
      0.70433333	      3.01246859	      2.53195973	      0.69492697	     -0.47775140	      1.02669711	      0.29835504	      5.24412141	      0.34315906	     -0.96809586	    -13.28860645	      5.92937110	    -10.22200525	      8.40027201	     14.73854769	      1.32106370	     -4.74164208	    -64.24748966	      1.57611316	    -16.96625430	     -2.30568252	    -10.61810661	     -2.56075820	      3.22640718
      0.70850000	      2.99388250	      2.66962630	      0.51371925	     -0.47261403	      1.02734029	      0.29871137	      4.82725414	      0.20730058	     -0.89036198	    -13.02407593	      6.00312096	    -10.10762369	      8.40762691	     15.16117209	      1.50344017	     -4.88970029	    -63.57239298	      1.76560765	    -16.74783634	     -2.34596643	    -10.61006365	     -2.72044265	      3.36262466
      0.71266667	      2.97941380	      2.79140602	      0.32607189	     -0.46748302	      1.02791991	      0.29907751	      4.40744858	      0.08589969	     -0.81894667	    -12.75934608	      6.11710595	     -9.96291735	      8.41987734	     15.56945724	      1.65529322	     -5.04699328	    -62.85365022	      1.97508523	    -16.45884891	     -2.38538811	    -10.61258960	     -2.86551241	      3.57125659
      0.71683333	      2.95317962	      2.90317877	      0.14010156	     -0.46234228	      1.02843670	      0.29942410	      3.99626564	     -0.02794542	     -0.74889931	    -12.48502000	      6.21179062	     -9.81617626	      8.43210636	     15.97667146	      1.79376535	     -5.19758090	    -62.08401884	      2.17314192	    -16.15816046	     -2.41071040	    -10.60517968	     -3.00722462	      3.75742504
      0.72100000	      2.96456496	      2.99101494	     -0.04902220	     -0.45720082	      1.02895304	      0.29976514	      3.54026253	     -0.11893549	     -0.68729600	    -12.20268186	      6.36501634	     -9.63938390	      8.45643740	     16.32909079	      1.89533083	     -5.35250757	    -61.26974011	      2.40076738	    -15.80388528	     -2.44921790	    -10.64009783	     -3.11311801	      4.06168759
      0.72516667	      2.95845304	      3.09624658	     -0.24642726	     -0.45204789	      1.02941644	      0.30009613	      3.10942686	     -0.23375604	     -0.62762130	    -11.92931018	      6.48093880	     -9.47130562	      8.48227725	     16.67684635	      2.01550688	     -5.51008201	    -60.38342511	      2.59196911	    -15.45892225	     -2.47638423	    -10.64750727	     -3.24027143	      4.28597198
      0.72933333	      2.94019236	      3.17990019	     -0.44319610	     -0.44689928	      1.02979465	      0.30042063	      2.69343427	     -0.32724215	     -0.57052728	    -11.65782549	      6.59818648	     -9.30808553	      8.50973543	     17.02809120	      2.10408807	     -5.66697721	    -59.46146956	      2.78653259	    -15.08730288	     -2.49266502	    -10.63912631	     -3.34464225	      4.50815199
      0.73350000	      2.93729394	      3.27512083	     -0.64372796	     -0.44174053	      1.03017508	      0.30072106	      2.26150462	     -0.43877547	     -0.51764842	    -11.38644964	      6.67783327	     -9.15149312	      8.52858927	     17.33716418	      2.20903043	     -5.81585465	    -58.46855699	      2.93896105	    -14.73562109	     -2.49617173	    -10.64501230	     -3.46120867	      4.66453453
      0.73766667	      2.93071936	      3.34568232	     -0.84561932	     -0.43657681	      1.03047301	      0.30102748	      1.83349900	     -0.52488952	     -0.46554896	    -11.11584662	      6.80632839	     -8.97389075	      8.55286985	     17.63957263	      2.27302558	     -5.97452073	    -57.44858655	      3.12016969	    -14.33172268	     -2.49469177	    -10.65116954	     -3.54830397	      4.89217344
      0.74183333	      2.91412895	      3.41290925	     -1.04408758	     -0.43141304	      1.03070683	      0.30132285	      1.41833285	     -0.60962385	     -0.41757503	    -10.84910545	      6.93992261	     -8.79565603	      8.57968865	     17.93630047	      2.33196194	     -6.12567822	    -56.38209168	      3.28216667	    -13.94258429	     -2.48913133	    -10.64476918	     -3.63238370	      5.12588126
      0.74600000	      2.91726309	      3.45244027	     -1.23473691	     -0.42624391	      1.03090213	      0.30159470	      0.97289350	     -0.66753140	     -0.37725511	    -10.56805890	      7.10975814	     -8.59915297	      8.62124885	     18.20101322	      2.35732421	     -6.26627328	    -55.29038750	      3.44984296	    -13.55118718	     -2.47623089	    -10.66607484	     -3.68261077	      5.42313318
      0.75016667	      2.92037895	      3.50260728	     -1.42965140	     -0.42106448	      1.03106861	      0.30185868	      0.53333821	     -0.73980572	     -0.33405849	    -10.29752549	      7.24547632	     -8.42553537	      8.66226948	     18.43991176	      2.39485063	     -6.40584034	    -54.13517426	      3.57248471	    -13.17833861	     -2.45837147	    -10.67960356	     -3.74686623	      5.64670305
      0.75433333	      2.89177635	      3.53194641	     -1.61465606	     -0.41588533	      1.03111776	      0.30210426	      0.13082681	     -0.79012839	     -0.29228207	    -10.03483986	      7.38295742	     -8.25755131	      8.70421314	     18.70401571	      2.40611198	     -6.53284276	    -52.95766575	      3.68561652	    -12.79939863	     -2.43462495	    -10.65895526	     -3.78672018	      5.86394668
